<!-- icon666.com - MILLIONS vector ICONS FREE --><svg id="Layer_1" viewBox="0 0 24 24" xmlns="http://www.w3.org/2000/svg" data-name="Layer 1"><path d="m6.25 22.56a5.42 5.42 0 0 1 -3.83-9.24l11-11a5.41 5.41 0 1 1 7.65 7.68l-11 11a5.34 5.34 0 0 1 -3.82 1.56zm11-20a3.6 3.6 0 0 0 -2.54 1l-11 11a3.59 3.59 0 0 0 2.54 6.13 3.62 3.62 0 0 0 2.54-1l11-11a3.59 3.59 0 0 0 0-5.08 3.56 3.56 0 0 0 -2.54-1.05z" fill="#000000" style="fill: rgb(255, 255, 255);"></path><path d="m11.25 17.56a5.42 5.42 0 0 1 -3.83-9.24l6-6a5.41 5.41 0 1 1 7.65 7.68l-6 6a5.42 5.42 0 0 1 -3.82 1.56zm6-15a3.6 3.6 0 0 0 -2.54 1l-6 6a3.59 3.59 0 0 0 2.54 6.13 3.62 3.62 0 0 0 2.54-1.05l6-6a3.59 3.59 0 0 0 0-5.08 3.56 3.56 0 0 0 -2.54-1z" fill="#000000" style="fill: rgb(255, 255, 255);"></path><path d="m17.2 8a1.82 1.82 0 1 1 1.8-1.81 1.82 1.82 0 0 1 -1.8 1.81z" fill="#000000" style="fill: rgb(255, 255, 255);"></path><path d="m12.66 8.92h1.82v1.82h-1.82z" fill="#000000" style="fill: rgb(255, 255, 255);"></path><path d="m12.66 11.65h1.82v1.82h-1.82z" fill="#000000" style="fill: rgb(255, 255, 255);"></path><path d="m9.93 8.92h1.82v1.82h-1.82z" fill="#000000" style="fill: rgb(255, 255, 255);"></path><path d="m9.93 11.65h1.82v1.82h-1.82z" fill="#000000" style="fill: rgb(255, 255, 255);"></path></svg>